# This file uses centimeters as units for non-parametric coordinates.

mtllib CupboardLeftSide.mtl
g default
v -23.689837 -30.962816 34.300606
v -23.689837 30.962816 34.300606
v -23.689837 30.962814 -27.624970
v 23.689837 30.962816 -27.624970
v -23.689837 -30.962816 -27.624970
v 23.689837 -30.962816 -27.624970
v -23.689837 26.729387 34.300606
v -23.689837 26.729387 -27.624970
v 23.689837 26.729387 -27.624970
v -23.689837 -26.729391 34.300606
v -23.689837 -26.729391 -27.624970
v 23.689837 -26.729391 -27.624970
v -23.689837 -30.962816 35.495880
v 24.885050 -30.962816 -27.624970
v 14.214849 26.729387 34.300606
v 18.952343 26.729387 33.031219
v 22.420429 26.729387 29.563110
v 23.689837 26.729387 24.825653
v 23.689837 -26.729391 24.825653
v 22.420429 -26.729391 29.563110
v 18.952343 -26.729391 33.031219
v 14.214849 -26.729391 34.300606
v 22.420431 -30.962816 29.563110
v 18.952351 -30.962816 33.031219
v 14.214866 -30.962816 34.300606
v 23.689837 -30.962816 24.825653
v 14.915776 -30.962816 35.014976
v 19.629353 -30.962816 33.707481
v 23.083193 -30.962816 30.243668
v 24.377024 -30.962816 25.526253
v 18.952351 30.962816 33.031219
v 22.420431 30.962816 29.563110
v 23.689837 30.962816 24.825653
v 14.214866 30.962816 34.300606
v 14.867738 26.729387 34.677772
v 14.915776 27.067154 35.014976
v 19.453142 26.729387 33.405884
v 19.629353 27.067154 33.707481
v 22.781054 26.729387 30.068291
v 23.083193 27.067154 30.243668
v 24.377024 27.067154 25.526253
v 24.039705 26.729387 25.479248
v 14.915768 -27.067156 35.014976
v 14.867726 -26.729391 34.677772
v 19.629349 -27.067156 33.707481
v 19.453138 -26.729391 33.405884
v 23.083191 -27.067156 30.243652
v 22.781052 -26.729391 30.068283
v 24.039705 -26.729391 25.479217
v 24.377024 -27.067156 25.526245
v 14.915768 30.625061 35.014976
v 14.867726 30.962816 34.677772
v 19.629349 30.625061 33.707481
v 19.453138 30.962816 33.405884
v 23.083191 30.625061 30.243652
v 22.781052 30.962816 30.068283
v 24.039705 30.962816 25.479217
v 24.377024 30.625061 25.526245
v -23.689837 -26.729391 35.158066
v -23.689837 -27.067156 35.495880
v 24.885050 -27.067156 -27.624970
v 24.547279 -26.729391 -27.624970
v -23.689837 27.067154 35.495880
v -23.689837 26.729387 35.158066
v -23.689837 30.962816 35.158066
v -23.689837 30.625061 35.495880
v 24.547279 26.729387 -27.624970
v 24.885050 27.067154 -27.624970
v 24.885050 30.625061 -27.624970
v 24.547279 30.962816 -27.624970
v -23.689837 27.071674 34.300606
v -23.689837 27.071674 -27.624970
v 23.689837 27.071674 -27.624970
v -23.689837 30.626965 34.300606
v -23.689837 30.626966 -27.624970
v 23.689837 30.626966 -27.624970
v -23.689837 -27.053913 34.300606
v -23.689837 -27.053913 -27.624970
v 23.689837 -27.053913 -27.624970
v 23.689837 -23.504976 21.081703
v 23.689837 -23.504976 -23.881043
v 23.689837 23.504972 -23.881043
v 23.689837 23.504972 21.081703
v 23.082933 -22.843653 20.413376
v 23.082933 -22.843653 -23.212685
v 23.082933 22.843649 -23.212685
v 23.082933 22.843649 20.413376
v 23.930689 -21.671053 19.377563
v 23.930689 -21.671053 -22.176872
v 23.930689 21.671049 -22.176872
v 23.930689 21.671049 19.377563
v 23.111958 -1.473169 -15.402290
v 23.111958 -0.463602 -14.392712
v 22.102396 -0.463602 -15.402290
v 26.141066 -0.463602 -15.402290
v 25.131504 -0.463602 -14.392712
v 25.131504 -1.473169 -15.402290
v 22.102396 5.923828 -15.402290
v 23.111958 5.923828 -14.392712
v 23.111958 6.933394 -15.402290
v 25.131504 6.933394 -15.402290
v 25.131504 5.923828 -14.392712
v 26.141066 5.923828 -15.402290
v 22.102396 5.923828 -17.421822
v 23.111958 6.933394 -17.421822
v 23.111958 5.923828 -18.431400
v 25.131504 5.923828 -18.431400
v 25.131504 6.933394 -17.421822
v 26.141066 5.923828 -17.421822
v 22.102396 -0.463602 -17.421822
v 23.111958 -0.463602 -18.431400
v 23.111958 -1.473169 -17.421822
v 25.131504 -1.473169 -17.421822
v 25.131504 -0.463602 -18.431400
v 26.141066 -0.463602 -17.421822
vt 0.209008 0.798390
vt 0.044877 0.986265
vt 0.209008 0.986265
vt 0.030783 0.986265
vt 0.020276 0.965710
vt 0.020276 0.946644
vt 0.020276 0.798390
vt 0.020276 0.949256
vt 0.020276 0.967632
vt 0.029154 0.988657
vt 0.042653 0.988657
vt 0.209008 0.988657
vt 0.020276 0.798390
vt 0.042653 0.990235
vt 0.209008 0.990235
vt 0.028300 0.990235
vt 0.017542 0.968426
vt 0.017542 0.949256
vt 0.017542 0.798390
vt 0.048765 0.421890
vt 0.034299 0.421890
vt 0.209008 0.609177
vt 0.209008 0.421890
vt 0.020276 0.458242
vt 0.020276 0.609177
vt 0.020276 0.439233
vt 0.046589 0.418181
vt 0.209008 0.418181
vt 0.019810 0.455462
vt 0.019810 0.609177
vt 0.032186 0.418181
vt 0.019810 0.436544
vt 0.019810 0.621136
vt 0.020276 0.621136
vt 0.209008 0.621136
vt 0.020276 0.622147
vt 0.209008 0.622147
vt 0.020276 0.798390
vt 0.209008 0.798390
vt 0.017542 0.786971
vt 0.020276 0.786971
vt 0.020276 0.785922
vt 0.020521 0.785922
vt 0.209008 0.786971
vt 0.019159 0.622147
vt 0.209008 0.785922
vt 0.337910 0.509714
vt 0.352085 0.512266
vt 0.350099 0.513135
vt 0.336530 0.510762
vt 0.326053 0.504329
vt 0.325451 0.505809
vt 0.317274 0.497171
vt 0.317294 0.498995
vt 0.333446 0.520520
vt 0.319862 0.514506
vt 0.324597 0.506754
vt 0.336021 0.511833
vt 0.349285 0.523437
vt 0.349948 0.514262
vt 0.309463 0.506033
vt 0.316286 0.499839
vt 0.242321 0.398769
vt 0.240167 0.400321
vt 0.469024 0.513984
vt 0.469033 0.516015
vt 0.231654 0.406597
vt 0.239099 0.401094
vt 0.468989 0.526355
vt 0.469036 0.517147
vt 0.199110 0.203206
vt 0.199110 0.375365
vt 0.193887 0.369814
vt 0.193887 0.208757
vt 0.033410 0.203206
vt 0.038632 0.208757
vt 0.033410 0.375365
vt 0.038633 0.369814
vt 0.202628 0.199736
vt 0.202628 0.378835
vt 0.029892 0.199736
vt 0.029892 0.378835
vt 0.216784 0.189632
vt 0.216784 0.392039
vt 0.015736 0.189632
vt 0.015736 0.392039
vt 0.466276 0.392039
vt 0.280657 0.392039
vt 0.280657 0.189632
vt 0.466276 0.189632
vt 0.256975 0.189632
vt 0.256975 0.392039
vt 0.235591 0.189632
vt 0.235591 0.392039
vt 0.244665 0.776578
vt 0.244699 0.781772
vt 0.246109 0.781779
vt 0.246126 0.778053
vt 0.245174 0.987657
vt 0.243764 0.987651
vt 0.495355 0.777717
vt 0.495339 0.782911
vt 0.496799 0.782917
vt 0.496816 0.779191
vt 0.495864 0.988796
vt 0.494404 0.988789
vt 0.479895 0.777647
vt 0.479891 0.782840
vt 0.478956 0.988719
vt 0.478403 0.782834
vt 0.478420 0.779108
vt 0.227713 0.781695
vt 0.227737 0.776502
vt 0.477468 0.988712
vt 0.226779 0.987574
vt 0.309124 0.525864
vt 0.320276 0.532195
vt 0.317336 0.540112
vt 0.304071 0.532781
vt 0.298709 0.515862
vt 0.292106 0.521408
vt 0.331214 0.534769
vt 0.330451 0.543322
vt 0.309750 0.523043
vt 0.321426 0.529534
vt 0.320548 0.530923
vt 0.309708 0.524803
vt 0.299087 0.512900
vt 0.299553 0.515062
vt 0.332821 0.532327
vt 0.331297 0.533427
vt 0.459410 0.533560
vt 0.459451 0.536274
vt 0.227578 0.416958
vt 0.225891 0.418169
vt 0.459468 0.537622
vt 0.459486 0.546223
vt 0.224952 0.418847
vt 0.217984 0.423947
vt 0.516648 0.204450
vt 0.695170 0.204450
vt 0.695170 0.390652
vt 0.516648 0.390652
vt 0.415207 0.159972
vt 0.391801 0.157449
vt 0.390164 0.128455
vt 0.414980 0.124984
vt 0.258886 0.153983
vt 0.271591 0.153987
vt 0.271584 0.176897
vt 0.258878 0.176892
vt 0.398028 0.178345
vt 0.318192 0.179786
vt 0.323130 0.160204
vt 0.390274 0.128676
vt 0.415022 0.125369
vt 0.414621 0.160367
vt 0.391383 0.157687
vt 0.395541 0.109123
vt 0.321912 0.130972
vt 0.316096 0.110030
vt 0.298313 0.163676
vt 0.298087 0.128686
vt 0.321492 0.131210
vt 0.211370 0.153968
vt 0.224075 0.153972
vt 0.224068 0.176881
vt 0.211362 0.176877
vt 0.298673 0.128292
vt 0.323021 0.159983
vt 0.298272 0.163290
vt 0.315268 0.110314
vt 0.395104 0.108874
vt 0.175754 0.153956
vt 0.188460 0.153960
vt 0.188453 0.176870
vt 0.175747 0.176866
vt 0.317754 0.179536
vt 0.397199 0.178629
vt 0.128238 0.153941
vt 0.140944 0.153945
vt 0.140937 0.176854
vt 0.128231 0.176850
vt 0.105322 0.176843
vt 0.105329 0.153933
vn 0.000000 0.000000 -1.000000
vn 0.000000 0.000000 -1.000000
vn 0.000000 0.000000 -1.000000
vn 0.000000 0.000000 -1.000000
vn -1.000000 0.000000 0.000000
vn -1.000000 0.000000 0.000000
vn -1.000000 0.000000 0.000000
vn -1.000000 0.000000 0.000000
vn -1.000000 0.000000 0.000000
vn -1.000000 0.000000 0.000000
vn -1.000000 0.000000 0.000000
vn -1.000000 0.000000 0.000000
vn 0.000000 0.000000 -1.000000
vn 0.000000 0.000000 -1.000000
vn 0.000000 0.000000 -1.000000
vn 0.000000 0.000000 -1.000000
vn -1.000000 0.000000 0.000000
vn -1.000000 0.000000 0.000000
vn 0.000000 0.000000 -1.000000
vn 0.000000 0.000000 -1.000000
vn -1.000000 0.000000 0.000000
vn -1.000000 0.000000 0.000000
vn 0.000000 0.000000 -1.000000
vn 0.000000 0.000000 -1.000000
vn -1.000000 0.000000 0.000000
vn -1.000000 0.000000 0.000000
vn -1.000000 0.000000 0.000000
vn 0.000000 0.000000 -1.000000
vn 0.000000 0.000000 -1.000000
vn 0.987622 0.000000 0.156851
vn 0.866025 0.000000 0.500001
vn 0.866025 0.000000 0.500001
vn 0.987622 0.000000 0.156851
vn 0.707109 0.000000 0.707104
vn 0.707109 0.000000 0.707104
vn 0.258815 0.000000 0.965927
vn 0.029755 0.000000 0.999557
vn 0.029755 0.000000 0.999557
vn 0.258815 0.000000 0.965927
vn 0.000000 -1.000000 -0.000000
vn 0.000000 -1.000000 -0.000001
vn 0.000000 -1.000000 -0.000001
vn 0.000000 -1.000000 -0.000000
vn 0.000000 -1.000000 -0.000001
vn 0.000000 -1.000000 -0.000001
vn 0.000000 -1.000000 0.000000
vn 0.000000 -1.000000 -0.000000
vn 0.000000 0.000000 1.000000
vn 0.000000 0.000000 1.000000
vn 1.000000 0.000000 0.000000
vn 1.000000 0.000000 0.000000
vn 1.000000 0.000000 0.000000
vn 1.000000 0.000000 0.000000
vn 0.000000 -1.000000 0.000000
vn 0.000000 -1.000000 0.000000
vn 0.000000 -1.000000 0.000000
vn 0.000000 -1.000000 0.000000
vn -0.000000 1.000000 -0.000000
vn -0.000000 1.000000 -0.000000
vn -0.000000 1.000000 -0.000000
vn 0.028883 -0.708278 0.705342
vn 0.028883 -0.708278 0.705342
vn 0.008807 -0.707122 0.707037
vn 0.008807 -0.707122 0.707037
vn 0.350253 -0.718903 0.600418
vn 0.350260 -0.718903 0.600414
vn 0.601430 -0.718904 0.348509
vn 0.601422 -0.718904 0.348524
vn 0.705886 -0.707990 0.021797
vn 0.705887 -0.707990 0.021793
vn 0.707087 -0.707094 0.006758
vn 0.707087 -0.707094 0.006758
vn 0.028883 0.708281 0.705339
vn 0.028883 0.708281 0.705339
vn 0.008807 0.707125 0.707034
vn 0.008807 0.707125 0.707034
vn 0.350259 0.718902 0.600416
vn 0.350252 0.718902 0.600420
vn 0.601422 0.718904 0.348523
vn 0.601429 0.718904 0.348511
vn 0.705882 0.707994 0.021794
vn 0.705882 0.707994 0.021796
vn 0.707083 0.707099 0.006758
vn 0.707083 0.707099 0.006758
vn 0.028883 0.708295 0.705326
vn 0.028883 0.708295 0.705326
vn 0.008807 0.707138 0.707020
vn 0.008807 0.707138 0.707020
vn 0.350256 0.718914 0.600402
vn 0.350249 0.718914 0.600407
vn 0.601413 0.718914 0.348519
vn 0.601420 0.718914 0.348507
vn 0.705872 0.708004 0.021793
vn 0.705872 0.708004 0.021796
vn 0.707073 0.707109 0.006758
vn 0.707073 0.707109 0.006758
vn 0.012456 0.000000 0.999922
vn 0.041249 0.000000 0.999149
vn 0.041249 0.000000 0.999149
vn 0.012456 0.000000 0.999922
vn 0.999516 -0.000000 0.031122
vn 0.999954 -0.000000 0.009558
vn 0.999954 -0.000000 0.009558
vn 0.999516 -0.000000 0.031122
vn 0.012456 0.000000 0.999922
vn 0.041249 0.000000 0.999149
vn 0.041249 0.000000 0.999149
vn 0.012456 0.000000 0.999922
vn 0.999516 -0.000000 0.031122
vn 0.999954 -0.000000 0.009558
vn 0.999954 -0.000000 0.009558
vn 0.999516 -0.000000 0.031122
vn 0.000000 1.000000 0.000002
vn 0.000000 1.000000 0.000002
vn 0.000000 1.000000 0.000002
vn 0.000000 1.000000 0.000001
vn 0.000000 1.000000 0.000000
vn 0.000000 1.000000 -0.000000
vn 0.000000 1.000000 -0.000000
vn 0.000000 1.000000 0.000000
vn 0.000000 -1.000000 0.000000
vn 0.000000 -1.000000 -0.000000
vn 0.000000 -1.000000 -0.000001
vn 0.000000 -1.000000 0.000000
vn 0.000000 1.000000 0.000002
vn 0.000000 1.000000 -0.000000
vn 0.000000 1.000000 0.000000
vn 0.000000 -1.000000 0.000000
vn 0.000000 -1.000000 0.000000
vn 0.000000 -1.000000 0.000000
vn 0.000000 -1.000000 0.000000
vn -0.000000 1.000000 -0.000000
vn -0.000000 1.000000 0.000000
vn 0.000000 1.000000 -0.000000
vn 0.000000 1.000000 -0.000000
vn 0.000000 -1.000000 0.000000
vn 0.000000 -1.000000 0.000000
vn 0.000000 -1.000000 -0.000001
vn 0.000000 -1.000000 -0.000001
vn 0.864914 0.000002 0.501920
vn 0.864914 0.000002 0.501920
vn 0.504422 0.000001 0.863457
vn 0.504422 0.000001 0.863457
vn 0.000000 1.000000 -0.000001
vn 0.000000 1.000000 -0.000001
vn 0.000000 1.000000 -0.000002
vn 0.000000 1.000000 -0.000002
vn 0.864914 0.000002 0.501921
vn 0.864914 0.000002 0.501920
vn 0.504422 0.000001 0.863457
vn 0.504422 0.000001 0.863457
vn -0.000000 1.000000 -0.000000
vn 0.000000 1.000000 0.000000
vn 0.000000 1.000000 0.000002
vn -1.000000 0.000000 0.000000
vn 0.000000 0.000000 -1.000000
vn 0.000000 0.000000 -1.000000
vn -1.000000 0.000003 0.000000
vn 0.000000 0.000000 -1.000000
vn -1.000000 0.000000 0.000000
vn -1.000000 0.000000 0.000000
vn 0.000000 0.000000 -1.000000
vn 0.000000 0.000000 -1.000000
vn -1.000000 0.000000 0.000000
vn 0.000000 0.000000 -1.000000
vn 0.000000 0.000000 -1.000000
vn -1.000000 0.000000 0.000000
vn 1.000000 0.000000 0.000000
vn 1.000000 0.000000 0.000000
vn 1.000000 0.000000 0.000000
vn 1.000000 0.000000 0.000000
vn 1.000000 0.000000 0.000000
vn 1.000000 0.000000 0.000000
vn 0.736772 0.676141 0.000000
vn 0.736772 0.676141 0.000000
vn 0.736772 0.676141 0.000000
vn 0.736772 0.676141 0.000000
vn 0.740323 0.000000 0.672251
vn 0.740323 0.000000 0.672251
vn 0.740323 0.000000 0.672251
vn 0.740323 0.000000 0.672251
vn 0.736772 -0.676141 0.000000
vn 0.736772 -0.676141 0.000000
vn 0.736772 -0.676141 0.000000
vn 0.736772 -0.676141 0.000000
vn 0.740308 0.000000 -0.672268
vn 0.740308 0.000000 -0.672268
vn 0.740308 0.000000 -0.672268
vn 0.740308 0.000000 -0.672268
vn 0.810391 -0.585889 0.000000
vn 0.810391 -0.585889 0.000000
vn 0.810391 -0.585889 0.000000
vn 0.810391 -0.585889 0.000000
vn 0.773858 0.000000 -0.633359
vn 0.773858 0.000000 -0.633359
vn 0.773858 0.000000 -0.633359
vn 0.773858 0.000000 -0.633359
vn 0.810391 0.585889 0.000000
vn 0.810391 0.585889 0.000000
vn 0.810391 0.585889 0.000000
vn 0.810391 0.585889 0.000000
vn 0.773857 0.000000 0.633361
vn 0.773857 0.000000 0.633361
vn 0.773857 0.000000 0.633361
vn 0.773857 0.000000 0.633361
vn 0.000000 -1.000000 -0.000001
vn 0.000000 -1.000000 -0.000001
vn 0.000000 -1.000000 -0.000001
vn 0.000000 -1.000000 0.000000
vn 0.000000 -1.000000 0.000000
vn 0.000000 -1.000000 0.000000
vn 0.000000 -1.000000 0.000000
vn 0.000000 -1.000000 0.000000
vn 0.000000 -1.000000 0.000000
vn 0.000000 -1.000000 0.000000
vn 0.000000 -1.000000 0.000000
vn 0.000000 -1.000000 0.000000
vn 0.000000 -1.000000 0.000000
vn 0.000000 -1.000000 0.000000
vn 0.000000 -1.000000 0.000000
vn -0.707109 -0.707105 0.000000
vn -0.707109 -0.707105 0.000000
vn -0.707109 -0.707105 0.000000
vn -0.707109 -0.707105 0.000000
vn 0.000000 -0.707111 0.707103
vn 0.000000 -0.707111 0.707103
vn 0.000000 -0.707111 0.707103
vn 0.000000 -0.707111 0.707103
vn -0.707113 0.000000 0.707101
vn -0.707113 0.000000 0.707101
vn -0.707113 0.000000 0.707101
vn -0.707113 0.000000 0.707101
vn 0.707109 -0.707105 0.000000
vn 0.707109 -0.707105 0.000000
vn 0.707109 -0.707105 0.000000
vn 0.707109 -0.707105 0.000000
vn 0.707113 0.000000 0.707101
vn 0.707113 0.000000 0.707101
vn 0.707113 0.000000 0.707101
vn 0.707113 0.000000 0.707101
vn -0.707108 0.707106 0.000000
vn -0.707108 0.707106 0.000000
vn -0.707108 0.707106 0.000000
vn -0.707108 0.707106 0.000000
vn 0.000000 0.707111 0.707103
vn 0.000000 0.707111 0.707103
vn 0.000000 0.707111 0.707103
vn 0.000000 0.707111 0.707103
vn 0.707108 0.707106 0.000000
vn 0.707108 0.707106 0.000000
vn 0.707108 0.707106 0.000000
vn 0.707108 0.707106 0.000000
vn -0.707113 0.000000 -0.707101
vn -0.707113 0.000000 -0.707101
vn -0.707113 0.000000 -0.707101
vn -0.707113 0.000000 -0.707101
vn 0.000000 0.707111 -0.707103
vn 0.000000 0.707111 -0.707103
vn 0.000000 0.707111 -0.707103
vn 0.000000 0.707111 -0.707103
vn 0.707113 0.000000 -0.707101
vn 0.707113 0.000000 -0.707101
vn 0.707113 0.000000 -0.707101
vn 0.707113 0.000000 -0.707101
vn 0.000000 -0.707111 -0.707103
vn 0.000000 -0.707111 -0.707103
vn 0.000000 -0.707111 -0.707103
vn 0.000000 -0.707111 -0.707103
vn 0.000000 0.000000 1.000000
vn 0.000000 0.000000 1.000000
vn 0.000000 0.000000 1.000000
vn 0.000000 0.000000 1.000000
vn 0.000000 1.000000 0.000000
vn 0.000000 1.000000 0.000000
vn 0.000000 1.000000 0.000000
vn 0.000000 1.000000 0.000000
vn 0.000000 0.000000 -1.000000
vn 0.000000 0.000000 -1.000000
vn 0.000000 0.000000 -1.000000
vn 0.000000 0.000000 -1.000000
vn 0.000000 -1.000000 0.000000
vn 0.000000 -1.000000 0.000000
vn 0.000000 -1.000000 0.000000
vn 0.000000 -1.000000 0.000000
vn 1.000000 0.000000 0.000000
vn 1.000000 0.000000 0.000000
vn 1.000000 0.000000 0.000000
vn 1.000000 0.000000 0.000000
vn -1.000000 0.000000 0.000000
vn -1.000000 0.000000 0.000000
vn -1.000000 0.000000 0.000000
vn -1.000000 0.000000 0.000000
vn -0.577356 -0.577350 0.577344
vn -0.577356 -0.577350 0.577344
vn -0.577357 -0.577350 0.577344
vn 0.577357 -0.577350 0.577344
vn 0.577356 -0.577350 0.577344
vn 0.577356 -0.577350 0.577344
vn -0.577357 0.577350 0.577344
vn -0.577357 0.577350 0.577344
vn -0.577357 0.577350 0.577344
vn 0.577357 0.577350 0.577344
vn 0.577357 0.577350 0.577344
vn 0.577357 0.577350 0.577344
vn -0.577357 0.577350 -0.577344
vn -0.577357 0.577350 -0.577344
vn -0.577357 0.577350 -0.577344
vn 0.577357 0.577350 -0.577344
vn 0.577357 0.577350 -0.577344
vn 0.577357 0.577350 -0.577344
vn -0.577357 -0.577350 -0.577344
vn -0.577356 -0.577350 -0.577344
vn -0.577356 -0.577350 -0.577344
vn 0.577356 -0.577350 -0.577344
vn 0.577356 -0.577350 -0.577344
vn 0.577357 -0.577350 -0.577344
s 1
g pCube22
usemtl initialShadingGroup
f 78/100/1 79/96/2 6/112/3 5/115/4
s 2
f 5/22/5 1/25/6 77/34/7 78/35/8
f 8/46/9 7/42/10 71/41/11 72/44/12
s 1
f 72/109/13 73/108/14 9/110/15 8/114/16
s 2
f 11/37/17 10/36/18 7/42/10 8/46/9
s 1
f 8/114/16 9/110/15 12/97/19 11/99/20
s 2
f 10/36/18 77/34/7 60/33/21 59/45/22
s 1
f 6/112/3 79/96/2 61/95/23 14/113/24
s 2
f 66/19/25 74/38/26 71/41/11 63/40/27
s 1
f 9/110/15 73/108/14 68/107/28 67/111/29
s 6
f 18/83/30 17/93/31 20/94/32 19/84/33
f 17/93/31 16/91/34 21/92/35 20/94/32
s 7
f 16/91/36 15/89/37 22/88/38 21/92/39
s 8
f 25/24/40 24/26/41 28/32/42 27/29/43
f 24/26/41 23/21/44 29/31/45 28/32/42
f 23/21/44 26/20/46 30/27/47 29/31/45
s 7
f 10/87/48 22/88/38 15/89/37 7/90/49
s off
f 88/140/50 89/141/51 90/142/52 91/143/53
s 8
f 1/25/54 25/24/40 27/29/43 13/30/55
f 30/27/47 26/20/46 6/23/56 14/28/57
s 9
f 31/5/58 3/1/59 34/6/60
s 10
f 35/129/61 36/120/62 63/138/63 64/135/64
f 36/120/62 35/129/61 37/127/65 38/116/66
f 38/116/66 37/127/65 39/126/67 40/117/68
f 40/117/68 39/126/67 42/131/69 41/122/70
f 41/122/70 42/131/69 67/133/71 68/136/72
s 11
f 43/60/73 44/49/74 59/66/75 60/70/76
f 44/49/74 43/60/73 45/58/77 46/50/78
f 46/50/78 45/58/77 47/57/79 48/52/80
f 48/52/80 47/57/79 50/62/81 49/54/82
f 49/54/82 50/62/81 61/68/83 62/64/84
s 12
f 51/18/85 52/8/86 65/13/87 66/19/88
f 52/8/86 51/18/85 53/17/89 54/9/90
f 54/9/90 53/17/89 55/16/91 56/10/92
f 56/10/92 55/16/91 58/14/93 57/11/94
f 57/11/94 58/14/93 69/15/95 70/12/96
s 13
f 13/69/97 27/59/98 43/60/99 60/70/100
f 30/61/101 14/67/102 61/68/103 50/62/104
s 15
f 63/138/105 36/120/106 51/121/107 66/139/108
f 41/122/109 68/136/110 69/137/111 58/123/112
s 17
f 22/48/113 10/65/114 59/66/115 44/49/116
f 12/63/117 19/53/118 49/54/119 62/64/120
s 19
f 7/134/121 15/128/122 35/129/123 64/135/124
s 9
f 52/8/125 34/6/60 2/7/126 65/13/127
s 19
f 18/130/128 9/132/129 67/133/130 42/131/131
s 9
f 4/3/132 33/2/133 57/11/134 70/12/135
s 19
f 17/125/136 18/130/128 42/131/131 39/126/137
f 15/128/122 16/124/138 37/127/139 35/129/123
f 16/124/138 17/125/136 39/126/137 37/127/139
s 13
f 29/56/140 30/61/101 50/62/104 47/57/141
f 27/59/98 28/55/142 45/58/143 43/60/99
f 28/55/142 29/56/140 47/57/141 45/58/143
s 17
f 19/53/118 20/51/144 48/52/145 49/54/119
f 20/51/144 21/47/146 46/50/147 48/52/145
f 21/47/146 22/48/113 44/49/116 46/50/147
s 15
f 40/117/148 41/122/109 58/123/112 55/118/149
f 36/120/106 38/116/150 53/119/151 51/121/107
f 38/116/150 40/117/148 55/118/149 53/119/151
s 9
f 33/2/133 32/4/152 56/10/153 57/11/134
f 32/4/152 31/5/58 54/9/154 56/10/153
f 31/5/58 34/6/60 52/8/125 54/9/154
s 2
f 72/44/12 71/41/11 74/38/26 75/39/155
s 1
f 75/106/156 76/102/157 73/108/14 72/109/13
s 2
f 63/40/27 71/41/11 7/42/10 64/43/158
s 1
f 68/107/28 73/108/14 76/102/157 69/101/159
s 2
f 75/39/155 74/38/26 2/7/160 3/1/161
s 1
f 3/105/162 4/103/163 76/102/157 75/106/156
s 2
f 2/7/160 74/38/26 66/19/25 65/13/164
s 1
f 69/101/159 76/102/157 4/103/163 70/104/165
s 2
f 78/35/8 77/34/7 10/36/18 11/37/17
s 1
f 11/99/20 12/97/19 79/96/2 78/100/1
f 61/95/23 79/96/2 12/97/19 62/98/166
s 2
f 60/33/21 77/34/7 1/25/6 13/30/167
s 6
f 19/84/33 12/86/168 81/82/169 80/80/170
f 12/86/168 9/85/171 82/81/172 81/82/169
f 9/85/171 18/83/30 83/79/173 82/81/172
f 18/83/30 19/84/33 80/80/170 83/79/173
s off
f 80/80/174 81/82/175 85/77/176 84/72/177
f 81/82/178 82/81/179 86/75/180 85/77/181
f 82/81/182 83/79/183 87/71/184 86/75/185
f 83/79/186 80/80/187 84/72/188 87/71/189
f 84/72/190 85/77/191 89/78/192 88/73/193
f 85/77/194 86/75/195 90/76/196 89/78/197
f 86/75/198 87/71/199 91/74/200 90/76/201
f 87/71/202 84/72/203 88/73/204 91/74/205
s 9
f 34/6/60 3/1/59 2/7/126
f 31/5/58 32/4/152 3/1/59
f 3/1/59 32/4/152 33/2/133
f 3/1/59 33/2/133 4/3/132
s off
f 23/21/206 24/26/207 5/22/208
f 24/26/209 25/24/210 5/22/211
f 5/22/212 25/24/213 1/25/214
f 5/22/215 6/23/216 26/20/217
f 26/20/218 23/21/219 5/22/220
f 92/144/221 94/145/222 110/146/223 112/147/224
f 93/148/225 92/149/226 97/150/227 96/151/228
f 94/145/229 93/152/230 99/153/231 98/154/232
f 95/155/233 97/156/234 113/157/235 115/158/236
f 96/159/237 95/155/238 103/160/239 102/161/240
f 98/154/241 100/162/242 105/163/243 104/164/244
f 100/165/245 99/166/246 102/167/247 101/168/248
f 101/169/249 103/160/250 109/170/251 108/171/252
f 104/164/253 106/172/254 111/173/255 110/146/256
f 106/174/257 105/175/258 108/176/259 107/177/260
f 107/178/261 109/170/262 115/158/263 114/179/264
f 112/180/265 111/181/266 114/182/267 113/183/268
f 93/148/269 96/151/270 102/167/271 99/166/272
f 100/165/273 101/168/274 108/176/275 105/175/276
f 106/174/277 107/177/278 114/182/279 111/181/280
f 112/180/281 113/183/282 97/184/283 92/185/284
f 95/155/285 115/158/286 109/170/287 103/160/288
f 110/146/289 94/145/290 98/154/291 104/164/292
f 92/144/293 93/152/294 94/145/295
f 95/155/296 96/159/297 97/156/298
f 98/154/299 99/153/300 100/162/301
f 101/169/302 102/161/303 103/160/304
f 104/164/305 105/163/306 106/172/307
f 107/178/308 108/171/309 109/170/310
f 110/146/311 111/173/312 112/147/313
f 113/157/314 114/179/315 115/158/316
